<svg xmlns="http://www.w3.org/2000/svg" version="1.1" xmlns:xlink="http://www.w3.org/1999/xlink" xmlns:svgjs="http://svgjs.dev/svgjs" viewBox="0 0 800 800"><defs><filter id="ssspot-filter" x="-20%" y="-20%" width="140%" height="140%" filterUnits="objectBoundingBox" primitiveUnits="userSpaceOnUse" color-interpolation-filters="sRGB">
	<feTurbulence type="turbulence" baseFrequency="0.022 0.218" numOctaves="2" seed="249" stitchTiles="stitch" x="0%" y="0%" width="100%" height="100%" result="turbulence"></feTurbulence>
	<feGaussianBlur stdDeviation="0 3" x="0%" y="0%" width="100%" height="100%" in="turbulence" edgeMode="duplicate" result="blur"></feGaussianBlur>
	<feDisplacementMap in="SourceGraphic" in2="blur" scale="32" xChannelSelector="R" yChannelSelector="B" x="0%" y="0%" width="100%" height="100%" result="displacementMap"></feDisplacementMap>
</filter></defs><rect width="100%" height="100%" fill="hsl(32, 100%, 89%)"></rect><g fill="hsl(32, 100%, 51%)" filter="url(#ssspot-filter)"><circle r="4.2020152501452674" cx="729.1573572022036" cy="783.7936897965601" opacity="0.11354665174854457"></circle><circle r="6.174272730167992" cx="667.2947191898913" cy="183.76094125426079" opacity="0.8080214941688395"></circle><circle r="7.259953024980726" cx="72.13355947293284" cy="499.1442145843577" opacity="0.29293739695500187"></circle><circle r="4.672020151653156" cx="270.23615859657633" cy="472.9276805351976" opacity="0.752720975657253"></circle><circle r="8.714073028150297" cx="197.58477931036134" cy="128.45664546135467" opacity="0.59673018628758"></circle><circle r="4.517468740277314" cx="14.837620959395467" cy="510.737598718232" opacity="0.9154566905097806"></circle><circle r="5.796741616191062" cx="605.2100169417105" cy="88.08604034700697" opacity="0.8619233141225441"></circle><circle r="4.380234044395883" cx="600.5890614310018" cy="695.8835460901524" opacity="0.6557083738236804"></circle><circle r="4.725897463662543" cx="35.06047649271168" cy="589.2540912588651" opacity="0.5263307474401063"></circle><circle r="11.038749805874517" cx="493.0991395299691" cy="380.4566643800704" opacity="0.9443052065759474"></circle><circle r="5.972440834797469" cx="148.52087985200245" cy="201.57025426157915" opacity="0.25432295976026453"></circle><circle r="3.292900026629247" cx="787.4614226410448" cy="199.86500974376042" opacity="0.3526570162345807"></circle><circle r="11.285863503239543" cx="76.04928611487773" cy="61.61896530675157" opacity="0.6382531464307516"></circle><circle r="5.0443303333840435" cx="473.37562703372197" cy="116.33540149543597" opacity="0.4805809158165679"></circle><circle r="9.230127352650115" cx="381.8058796429564" cy="374.40996980707627" opacity="0.3182339167605305"></circle><circle r="9.023586666641327" cx="619.5011501070305" cy="22.189611398892353" opacity="0.2363004820412034"></circle><circle r="7.547892831835284" cx="274.57987464300845" cy="130.50659332194599" opacity="0.9678787116323425"></circle><circle r="8.530757877893059" cx="194.86867053329854" cy="519.8940041557353" opacity="0.3310330206668274"></circle><circle r="11.160386754668767" cx="413.8576561865456" cy="420.50383266030656" opacity="0.7312238707641855"></circle><circle r="4.826151084022986" cx="63.97454331071036" cy="403.96921979815926" opacity="0.7197281625352081"></circle><circle r="4.920276385310304" cx="576.2571344602472" cy="479.6606110577035" opacity="0.3973827390267797"></circle><circle r="7.747420582332517" cx="633.4725380475019" cy="729.8701382490243" opacity="0.7313366297118344"></circle><circle r="6.264072015053754" cx="286.556927353168" cy="709.5460516431725" opacity="0.6811893738026951"></circle><circle r="14.486455662175889" cx="405.32507513072034" cy="558.1314497321156" opacity="0.24717390649048376"></circle><circle r="7.990444148871083" cx="775.6315113736798" cy="776.9356867175757" opacity="0.275151691912497"></circle><circle r="8.063671785685397" cx="479.9761269728082" cy="327.5331963810508" opacity="0.7084733148958902"></circle><circle r="5.165966968175176" cx="541.2996548446964" cy="692.4320121029533" opacity="0.3068466075651188"></circle><circle r="7.360883460092752" cx="603.945630538008" cy="325.7586214803096" opacity="0.15917034703486427"></circle><circle r="4.698542646238978" cx="43.06504398265843" cy="625.658167277444" opacity="0.41914320256111204"></circle><circle r="7.136700861636145" cx="370.1413099515201" cy="57.62723135601005" opacity="0.5865155673232743"></circle><circle r="6.8385432979310865" cx="668.9538543217626" cy="428.7576390113322" opacity="0.8838188108463094"></circle><circle r="7.387373405341476" cx="157.84883126777802" cy="162.16125221905426" opacity="0.875139981554109"></circle><circle r="10.52579791012961" cx="193.2756356993164" cy="778.5523335428827" opacity="0.9987406393580122"></circle><circle r="8.639838968432173" cx="81.47926302943853" cy="163.01961524787114" opacity="0.6304864391927327"></circle><circle r="9.191162627297071" cx="462.64358874280674" cy="226.7521553371644" opacity="0.8998243228501597"></circle><circle r="9.182906460732251" cx="745.5584886525835" cy="546.399439295311" opacity="0.45292280467561197"></circle><circle r="7.360493362259038" cx="118.86539874408938" cy="693.3073660957684" opacity="0.5714860822550287"></circle><circle r="5.442136652818557" cx="574.3362611885689" cy="710.2504639140699" opacity="0.6959140437561256"></circle><circle r="4.910688128445646" cx="257.20858649901413" cy="12.703029291563093" opacity="0.9565895824290902"></circle><circle r="8.138330674769687" cx="685.9011415947399" cy="135.40997881406548" opacity="0.1515249239387638"></circle><circle r="5.139139124076629" cx="518.5469705996114" cy="16.991283628047245" opacity="0.7088649500768854"></circle><circle r="6.201683447125758" cx="555.9046655624511" cy="231.94920204130904" opacity="0.13871318938791008"></circle><circle r="2.892176912431133" cx="195.8861093663136" cy="477.71211625557686" opacity="0.24431953141659965"></circle><circle r="6.555542260302019" cx="109.25951739674187" cy="343.9093921784672" opacity="0.1360036242884739"></circle><circle r="10.405082174981672" cx="444.6383325536623" cy="369.32604588250297" opacity="0.2551600482435721"></circle><circle r="7.693233872267747" cx="641.6800446927932" cy="114.38235112118899" opacity="0.10992114387024267"></circle><circle r="8.701087204909753" cx="296.37183547055736" cy="346.1572320553566" opacity="0.5191543553693695"></circle><circle r="6.002415482174852" cx="455.8196625505958" cy="719.8795429922668" opacity="0.7270714950571813"></circle><circle r="7.003160660958221" cx="24.498346909445555" cy="426.5145511782814" opacity="0.8048815640702064"></circle><circle r="3.8573464932160255" cx="602.0866840948842" cy="665.3521610358667" opacity="0.24289907782990455"></circle><circle r="9.562506892155717" cx="576.0826112405763" cy="185.28814833509963" opacity="0.9356724020796356"></circle><circle r="5.861067901460201" cx="400.90051263846414" cy="97.94563643504566" opacity="0.6251750040750361"></circle><circle r="7.2691081877900245" cx="388.5334805815023" cy="289.1911383244068" opacity="0.8922182357865253"></circle><circle r="8.462323131201272" cx="536.0251373222228" cy="279.302548017089" opacity="0.4982078591266278"></circle><circle r="5.738430817910424" cx="569.9334012493243" cy="37.033161622602464" opacity="0.6942874098970055"></circle><circle r="2.7067751709193235" cx="132.5621877944222" cy="364.09684421132414" opacity="0.2936621993740065"></circle><circle r="7.0187568473065065" cx="160.90365528984034" cy="381.4735992946855" opacity="0.7590641848597154"></circle><circle r="8.88350967766113" cx="627.9557653110144" cy="373.1295970859662" opacity="0.820207282380302"></circle><circle r="6.251582462084609" cx="292.9340308431697" cy="585.4527964340257" opacity="0.45236549233681744"></circle><circle r="5.99798906114877" cx="100.12141238269032" cy="778.5995295441725" opacity="0.7631208426939023"></circle><circle r="7.528680234227776" cx="699.9233680894234" cy="237.99195353177646" opacity="0.4268522572833898"></circle><circle r="6.460334959323275" cx="642.0890862412793" cy="620.7094235510175" opacity="0.7911973734348619"></circle><circle r="5.570390196153334" cx="68.50354055227692" cy="779.2140021526378" opacity="0.631649298043734"></circle><circle r="7.787757710017962" cx="426.4141866980449" cy="161.5490511574301" opacity="0.4739349327553316"></circle><circle r="4.980413872269743" cx="701.9756260336727" cy="485.1767281801595" opacity="0.7246513949424184"></circle><circle r="5.67242453700805" cx="412.3305158732751" cy="131.5016876794396" opacity="0.34371483539442743"></circle><circle r="9.625996347234022" cx="395.25960074416105" cy="333.12693964446896" opacity="0.223321222023193"></circle><circle r="10.449787505044515" cx="598.0299384597547" cy="142.74218510672188" opacity="0.3997045774685367"></circle><circle r="10.25406510089454" cx="623.8575663097185" cy="194.9079511780353" opacity="0.8796021769490407"></circle><circle r="4.451529614494161" cx="790.3987204600752" cy="249.28659678266254" opacity="0.9384287438697028"></circle><circle r="6.793063263185313" cx="726.1788094806517" cy="643.2500997445123" opacity="0.4344593654676544"></circle><circle r="7.427547893012578" cx="480.3388595301886" cy="429.6980766733596" opacity="0.10779296117359448"></circle><circle r="13.825162126511163" cx="393.3960471985676" cy="493.45320802070694" opacity="0.3931961833268036"></circle><circle r="6.121677244557016" cx="90.19260525852097" cy="107.3012704833917" opacity="0.3257259048045913"></circle><circle r="5.7207992408350945" cx="84.45582831306591" cy="573.083349012433" opacity="0.5024081492065715"></circle><circle r="4.868433624371111" cx="739.788776879041" cy="260.19530866468693" opacity="0.7286515072587968"></circle><circle r="7.652528096802645" cx="597.1209121332388" cy="437.46146292293224" opacity="0.29945950836496693"></circle><circle r="7.941172083711994" cx="341.3882247398476" cy="701.9901687910263" opacity="0.7767014989460266"></circle><circle r="4.314965518902649" cx="302.8816311237592" cy="107.50197477027115" opacity="0.5701361659303849"></circle><circle r="8.405510705503378" cx="366.88556237969516" cy="433.4239478509493" opacity="0.9958512085505233"></circle><circle r="6.593347567546333" cx="522.7647437438995" cy="421.60211944043976" opacity="0.4978536858316065"></circle><circle r="9.321923387685228" cx="400.4729934603001" cy="20.196254928075042" opacity="0.8161975380589086"></circle><circle r="7.034493725193794" cx="753.4747852294732" cy="70.52900721827959" opacity="0.3955898861686382"></circle><circle r="4.044877485207158" cx="219.91102554794836" cy="485.01292749218544" opacity="0.6764957310679165"></circle><circle r="10.30211167426175" cx="299.0450911571903" cy="211.36283757909447" opacity="0.9423828116488987"></circle><circle r="11.080587041328378" cx="438.4303499132632" cy="462.0522225673479" opacity="0.694651930554655"></circle><circle r="4.842047400629305" cx="725.7858736008559" cy="82.86239642612797" opacity="0.9029529212910676"></circle><circle r="3.6924153923334053" cx="787.0034379858815" cy="149.77069157616762" opacity="0.2550492070584146"></circle><circle r="8.181192405379887" cx="338.34358283203056" cy="575.8058782349311" opacity="0.34337311651611174"></circle><circle r="7.947898144886446" cx="29.951380322993643" cy="29.264249619053086" opacity="0.6108195233780347"></circle><circle r="4.229757406327379" cx="573.8514276031589" cy="340.6519930591839" opacity="0.5110776200435109"></circle><circle r="7.9735018209734445" cx="243.75644820615463" cy="319.7438767910336" opacity="0.910945075698991"></circle><circle r="7.366305909424732" cx="47.49090578225413" cy="664.4287285747403" opacity="0.577330028957135"></circle><circle r="9.087504417021155" cx="319.5542948283044" cy="743.1089282175626" opacity="0.722708309481938"></circle><circle r="6.203428681255852" cx="14.57481504940889" cy="154.50831085719707" opacity="0.7063890633758781"></circle><circle r="7.469273127908676" cx="131.8631427254905" cy="738.1932583602878" opacity="0.8412628935396594"></circle><circle r="6.356860452322282" cx="180.27040215805783" cy="277.1789944144131" opacity="0.9567160018025377"></circle><circle r="5.47548662636897" cx="301.3884000146064" cy="21.358111380854872" opacity="0.5853129231416951"></circle><circle r="9.88752742607207" cx="492.00559715874" cy="770.3656123530567" opacity="0.13687359975681287"></circle><circle r="7.553887388473507" cx="674.6846036592765" cy="390.48036650485824" opacity="0.8991660660335098"></circle><circle r="8.413108033273183" cx="705.0999466800237" cy="348.9117950304115" opacity="0.6406029270295649"></circle><circle r="5.24667338563574" cx="725.9877532461425" cy="684.9050948438443" opacity="0.19697394147736286"></circle><circle r="6.667700725582484" cx="760.0587374213223" cy="727.7619579980759" opacity="0.10661718204374519"></circle><circle r="7.829310128076906" cx="16.678840292972893" cy="375.35202772046915" opacity="0.3114796558611994"></circle><circle r="8.442573762823347" cx="55.35508990464032" cy="367.9723320053983" opacity="0.9843836169837947"></circle><circle r="6.369102470980552" cx="664.2357095374784" cy="352.6330876547614" opacity="0.9913346763924351"></circle><circle r="4.748375086970451" cx="175.9566465831701" cy="554.6503034747326" opacity="0.41911690182703465"></circle><circle r="4.779501378048446" cx="599.391971074204" cy="781.4376223500975" opacity="0.3374016899606242"></circle><circle r="5.539771865750556" cx="737.1050430955534" cy="503.0936330353903" opacity="0.19224545935011622"></circle><circle r="10.069240203900582" cx="274.41239024546053" cy="420.48067919085685" opacity="0.7390153262933523"></circle><circle r="4.837402048487356" cx="395.79925839911385" cy="675.8723534536226" opacity="0.9003835172412052"></circle><circle r="6.852106845157508" cx="519.4092129404137" cy="232.855675067508" opacity="0.9712636861716335"></circle><circle r="6.335894818660739" cx="231.09052541443506" cy="427.51704092549187" opacity="0.8056375799310398"></circle><circle r="6.941425793814409" cx="785.6583078109599" cy="70.40934907113923" opacity="0.2839558881703371"></circle><circle r="6.8202460946406305" cx="305.13380145609517" cy="474.7215644995916" opacity="0.5947506237604808"></circle><circle r="7.1796153812602235" cx="230.97081880017566" cy="635.5960804784565" opacity="0.2590467119282692"></circle><circle r="7.0183018953148375" cx="444.97837930524184" cy="770.9690303082494" opacity="0.7855938037313627"></circle><circle r="9.42273503898031" cx="499.124081265582" cy="148.8599880210866" opacity="0.7458031307205332"></circle><circle r="5.936638792592472" cx="172.89400416589675" cy="485.7606765514235" opacity="0.9869599509860449"></circle><circle r="6.318096261231398" cx="16.69201581487754" cy="249.9786816490858" opacity="0.4753240337250556"></circle><circle r="7.993430270904849" cx="204.0672075821808" cy="24.049714611269355" opacity="0.5171835937337266"></circle><circle r="5.766233320499014" cx="30.777791403616035" cy="553.7770005652254" opacity="0.7232215562923191"></circle><circle r="6.269485641446115" cx="504.95158184590764" cy="717.1323129845283" opacity="0.3715072775450913"></circle><circle r="5.774615312159251" cx="178.23811892350946" cy="328.2354935724924" opacity="0.7551303617018534"></circle><circle r="6.095764509629208" cx="651.0418271057786" cy="153.24480850777235" opacity="0.16694907790611804"></circle><circle r="5.058549517036224" cx="126.64248739089808" cy="414.32131859332236" opacity="0.5634983661624001"></circle><circle r="5.157002664516603" cx="713.0531146537003" cy="403.1414383497363" opacity="0.11914112423768723"></circle><circle r="7.906024329083548" cx="721.1986711583459" cy="125.13578776540886" opacity="0.9183869885697673"></circle><circle r="6.609083676919874" cx="636.6429657077067" cy="571.6074523708637" opacity="0.28587598842107415"></circle><circle r="6.9563447235958416" cx="779.826631457667" cy="509.2135432862329" opacity="0.7378311409013559"></circle><circle r="5.062363374118508" cx="607.5978716033021" cy="599.9288797625751" opacity="0.5191342735003716"></circle><circle r="5.52200051543928" cx="204.2781842055003" cy="445.3290250963785" opacity="0.21555704401269038"></circle><circle r="5.917173694233599" cx="371.5511520320289" cy="693.0657172287151" opacity="0.5711630078144553"></circle><circle r="9.646284772064224" cx="731.3814445103103" cy="585.7009021989518" opacity="0.21917798754531065"></circle><circle r="7.156835861610553" cx="26.56294722884871" cy="91.94708320746061" opacity="0.3621253569185342"></circle><circle r="7.058410667118614" cx="654.9205517573104" cy="471.37604362262346" opacity="0.9932313048021473"></circle><circle r="9.881599131356626" cx="237.229104145784" cy="107.62304354601504" opacity="0.8304099675058011"></circle><circle r="11.51009163633627" cx="331.5347857496698" cy="312.0079412107207" opacity="0.6240072156469093"></circle><circle r="5.67520413217976" cx="153.81713304996336" cy="21.570705919339805" opacity="0.36649879201440994"></circle><circle r="8.753246726296522" cx="50.668843097825096" cy="699.6526696740528" opacity="0.2714577109449216"></circle><circle r="9.852639522221871" cx="541.7440439289716" cy="132.44669002747779" opacity="0.6769743710205908"></circle><circle r="7.7459444533021315" cx="26.755715220585166" cy="329.4433550381515" opacity="0.7170847916049314"></circle><circle r="6.680377447027427" cx="667.8914600367137" cy="511.1105520074612" opacity="0.13891405343378235"></circle><circle r="5.7524546498999225" cx="679.9156135689242" cy="49.55979435807624" opacity="0.6146448616488163"></circle><circle r="11.264363963115795" cx="768.435589036512" cy="22.7818228445925" opacity="0.36752194875790734"></circle><circle r="6.633358734637982" cx="141.60478419529005" cy="320.431054839578" opacity="0.9094965260753052"></circle><circle r="7.9161674380465525" cx="427.27841710280956" cy="683.482472388596" opacity="0.8337294602597397"></circle><circle r="9.140164055482398" cx="513.0261083583298" cy="90.66549097613537" opacity="0.9036804088081507"></circle><circle r="4.680550561813618" cx="767.3979062768163" cy="243.8119751652014" opacity="0.4505718379476551"></circle><circle r="4.640523887284479" cx="53.427078810214574" cy="463.1115888018694" opacity="0.15400563784972662"></circle><circle r="7.747335240016259" cx="85.43536899888734" cy="438.56518442169653" opacity="0.1997569170269094"></circle><circle r="7.914775133834629" cx="328.6729388083362" cy="83.47213344518566" opacity="0.6390103425421487"></circle><circle r="5.263622027082307" cx="38.23296517215725" cy="294.2853486631152" opacity="0.7641084177327029"></circle><circle r="5.822767186980732" cx="568.7892083567513" cy="645.167320609548" opacity="0.33865173916434566"></circle><circle r="4.76277676086157" cx="757.1781342703805" cy="676.147179647314" opacity="0.4473447904287279"></circle><circle r="8.111387676698214" cx="92.3424717409307" cy="532.6550721404734" opacity="0.29195037757471765"></circle><circle r="4.595589267452752" cx="220.7387426469807" cy="597.2848730722147" opacity="0.1775398619461734"></circle><circle r="7.590781703740902" cx="547.3171274270834" cy="740.9351186600562" opacity="0.26126759298006086"></circle><circle r="5.733538085189293" cx="53.903555336675865" cy="527.8867188649915" opacity="0.8947919798935619"></circle><circle r="5.76462188514702" cx="614.598392369616" cy="481.7673155813973" opacity="0.23387211286055665"></circle><circle r="7.325557207941509" cx="294.10393951754935" cy="525.8714632746407" opacity="0.984621047927986"></circle><circle r="9.364978752941315" cx="455.13238763587793" cy="21.727754787031355" opacity="0.7683755875662354"></circle><circle r="7.650996782784092" cx="104.20109590021531" cy="304.3071123377912" opacity="0.6194994718570151"></circle><circle r="7.523566696249835" cx="229.26683868694593" cy="250.0993040418227" opacity="0.2473282539268415"></circle><circle r="4.805181293498212" cx="60.470458601604214" cy="214.55251048944896" opacity="0.9718940785991949"></circle><circle r="8.430020916965596" cx="701.6279138228523" cy="546.2411268087277" opacity="0.8066580360611799"></circle><circle r="8.616796825317657" cx="579.0265919962369" cy="579.1274147852959" opacity="0.4424253415892986"></circle><circle r="11.674389543595016" cx="148.42114982498006" cy="112.92167549756839" opacity="0.9172642932518562"></circle><circle r="8.49442267406204" cx="97.10709439215331" cy="19.576335561756416" opacity="0.630087897775098"></circle><circle r="11.333906805375104" cx="588.5170219621427" cy="282.9451721484101" opacity="0.46934546864250004"></circle><circle r="4.961507638794195" cx="669.0416651781065" cy="611.5308803988697" opacity="0.2800848857855426"></circle><circle r="9.404432671737185" cx="162.21011766742023" cy="665.4273252233604" opacity="0.5380525028973685"></circle><circle r="5.4801366830281335" cx="661.8958047382506" cy="549.6757159895016" opacity="0.525723089008872"></circle><circle r="11.5438610973321" cx="405.7864668448538" cy="735.1966642826839" opacity="0.46374910945054115"></circle><circle r="6.46356475679811" cx="170.96597818469857" cy="442.70705523971554" opacity="0.16574035742701587"></circle><circle r="5.2467871117516" cx="640.881954891915" cy="65.25923695633008" opacity="0.16933217506994502"></circle><circle r="4.64437722237629" cx="182.28096340994392" cy="408.8371908598698" opacity="0.9725006006896236"></circle><circle r="5.530983677389388" cx="726.6676317630761" cy="747.436794160086" opacity="0.17722442085306833"></circle><circle r="6.8963894750508" cx="670.7796439885649" cy="214.43036027936714" opacity="0.826873630665568"></circle><circle r="7.130852085005935" cx="530.7609465248206" cy="342.6668414746651" opacity="0.9138083875566254"></circle><circle r="6.094624372355245" cx="373.6010691553044" cy="614.1921760746512" opacity="0.8114655478134819"></circle><circle r="7.767205232039693" cx="134.49647953125896" cy="281.7532558305135" opacity="0.7335866586198317"></circle><circle r="6.6104954344413205" cx="393.5499048188656" cy="781.6843910715866" opacity="0.14338910409491518"></circle><circle r="6.226435580859168" cx="48.508449381797135" cy="135.74445606892718" opacity="0.6783770168718365"></circle><circle r="7.575058877036081" cx="138.25863553305982" cy="779.4204544359704" opacity="0.84055230220133"></circle><circle r="7.4701183031899605" cx="772.870326178518" cy="293.88619308061845" opacity="0.9850069967624308"></circle><circle r="9.377433766598308" cx="178.20978044562978" cy="623.9465390894845" opacity="0.7263959499733215"></circle><circle r="3.3815597121104366" cx="120.44880216320912" cy="376.35580325810804" opacity="0.7976007279262228"></circle><circle r="5.483663378331309" cx="103.83247154346758" cy="602.7182245700964" opacity="0.5155831084431842"></circle><circle r="9.623528580004233" cx="266.8853277501081" cy="769.5726326143803" opacity="0.3323314290805651"></circle><circle r="8.339148553518086" cx="457.4798254827522" cy="533.536505379847" opacity="0.4210399390707299"></circle><circle r="6.972824517524037" cx="78.53892632707597" cy="333.3528219150629" opacity="0.7648235435714434"></circle><circle r="7.809286977185741" cx="698.8752845455507" cy="445.43946911934574" opacity="0.893158945669752"></circle><circle r="6.563055105768397" cx="247.33734468921645" cy="496.4980282836079" opacity="0.8203420253448797"></circle><circle r="4.342403760506395" cx="145.65278226475056" cy="554.8625914258419" opacity="0.4867432560455859"></circle><circle r="6.768665973930255" cx="149.92397855911872" cy="472.27271361551686" opacity="0.7621630116048905"></circle><circle r="8.42337591290827" cx="87.42241570921367" cy="656.5022741287518" opacity="0.4278064414490239"></circle><circle r="6.838462239945077" cx="413.78902009300117" cy="624.1880656433319" opacity="0.720940647553062"></circle><circle r="10.869459018817553" cx="644.2952546879718" cy="248.64405299755376" opacity="0.24124164878879592"></circle><circle r="8.480844175470766" cx="513.9113499672823" cy="544.772518764122" opacity="0.5588748028817768"></circle><circle r="8.837630303552976" cx="692.2671865119811" cy="693.1080655175282" opacity="0.48871793162487087"></circle><circle r="5.514434593962143" cx="303.4418879245221" cy="153.2120490355104" opacity="0.1976457030192021"></circle><circle r="7.35486220106361" cx="100.65142411822707" cy="481.2568052474074" opacity="0.5766174248420017"></circle><circle r="4.806598545420854" cx="131.80983318145047" cy="448.19354947885716" opacity="0.666909588974695"></circle><circle r="7.052278347423487" cx="529.1671580968688" cy="54.780408674811206" opacity="0.22680161552874142"></circle><circle r="9.597055567925507" cx="181.8913600769706" cy="70.87025725893292" opacity="0.10352645842070264"></circle><circle r="7.544115631734272" cx="149.09454925102074" cy="521.3826751660722" opacity="0.8956104773566226"></circle><circle r="8.532329352486128" cx="427.9723167538145" cy="202.42288076689675" opacity="0.2613905104103823"></circle><circle r="6.628101552335191" cx="736.2335146697287" cy="212.9915299337287" opacity="0.24665168636953447"></circle><circle r="3.9776201382489678" cx="698.4412129507556" cy="171.01293000331566" opacity="0.5057312515368062"></circle><circle r="6.5427818266317335" cx="320.55036422341794" cy="438.7291242467791" opacity="0.6160154370685618"></circle><circle r="3.6960166224550752" cx="783.4005372488667" cy="325.50080408892177" opacity="0.6061409089184585"></circle><circle r="5.680982201195253" cx="333.68951604996374" cy="127.0115402920155" opacity="0.29604036946495726"></circle><circle r="3.77506172469159" cx="39.781451315968184" cy="497.9961206552073" opacity="0.3883829283836133"></circle><circle r="5.239748987303806" cx="206.9690575139578" cy="302.0068684603854" opacity="0.8268852415596354"></circle><circle r="6.751965504560349" cx="124.68377598963342" cy="638.0302414715281" opacity="0.18912863028895635"></circle><circle r="8.66883737148269" cx="748.6150967645171" cy="355.2320141612234" opacity="0.22372815107734711"></circle><circle r="3.9348374869684313" cx="617.2882827882412" cy="406.0735967184978" opacity="0.41549563761840236"></circle><circle r="8.330663924713594" cx="454.51974238177354" cy="656.6960576121688" opacity="0.3090544922039715"></circle><circle r="7.631052011558268" cx="257.8919395248285" cy="680.2896579456419" opacity="0.21531418348640946"></circle><circle r="7.9902729179419705" cx="15.284269118560827" cy="471.0851555645984" opacity="0.5577470085556826"></circle><circle r="5.879616122182381" cx="100.9654103727809" cy="197.62369008544664" opacity="0.9964122661397818"></circle><circle r="4.62405206360724" cx="707.9894681360811" cy="283.8019579832267" opacity="0.9631072862372055"></circle><circle r="4.978849945241196" cx="782.1178642566525" cy="553.371138330816" opacity="0.7218815836798828"></circle><circle r="5.221744085615143" cx="114.67526301350574" cy="144.9420248635541" opacity="0.18614284060235312"></circle><circle r="4.899096131840331" cx="788.6036511120161" cy="734.4292130417523" opacity="0.6792325861016152"></circle><circle r="7.853102743018696" cx="723.8939327766046" cy="177.28059467027606" opacity="0.38612577562772976"></circle><circle r="8.882290980153744" cx="457.25318756214614" cy="608.7168549013829" opacity="0.14022149199534945"></circle><circle r="5.734419030588161" cx="432.9579164430593" cy="296.75852129865035" opacity="0.11492526397360847"></circle><circle r="6.459462560938899" cx="768.9985822066936" cy="117.46889011473202" opacity="0.6532865779034468"></circle><circle r="9.548391604981765" cx="344.9566598565658" cy="483.05833166677337" opacity="0.1202421926885257"></circle><circle r="10.713663196335872" cx="613.7266517187076" cy="526.8094843672008" opacity="0.43930375571444125"></circle><circle r="7.926569991176141" cx="526.5388053277127" cy="186.5131199496313" opacity="0.3338173892692984"></circle><circle r="7.0355661511076" cx="113.0129332668185" cy="239.8041639070393" opacity="0.32035720333954565"></circle><circle r="9.840845488075948" cx="341.75967791933283" cy="526.4180817517699" opacity="0.48337755513411595"></circle><circle r="7.44473259731056" cx="748.5834203873192" cy="402.21584090168767" opacity="0.24802960506430916"></circle><circle r="7.94870614997467" cx="207.47646391056253" cy="567.9441007825501" opacity="0.14353702849673367"></circle><circle r="8.141545986798354" cx="164.0005588831726" cy="242.46990182917628" opacity="0.6802237547390784"></circle><circle r="8.136288310817232" cx="670.4456801274167" cy="730.721042074547" opacity="0.5252313712471682"></circle><circle r="4.613840144885502" cx="96.68032448279337" cy="384.68722292818586" opacity="0.23342497777183005"></circle><circle r="8.63370885705761" cx="496.85230071118735" cy="597.9836926347525" opacity="0.35984812702888036"></circle><circle r="4.8597537589461925" cx="635.5364327033317" cy="430.5269441578858" opacity="0.23078685915907154"></circle><circle r="7.684199294526314" cx="342.9668573319428" cy="637.3853839785643" opacity="0.8178627151617129"></circle><circle r="8.873492440482686" cx="543.6294350714371" cy="780.0572300729965" opacity="0.7940950934318027"></circle><circle r="4.255708760302166" cx="499.2051241242974" cy="659.2919660935263" opacity="0.13057563289825844"></circle><circle r="8.604344682390199" cx="421.3759048946932" cy="60.73942342240525" opacity="0.43664286398721597"></circle><circle r="7.182547570223304" cx="605.5860933365666" cy="745.9805643432637" opacity="0.8750550915207852"></circle><circle r="3.448646922102323" cx="572.6135188633257" cy="385.1295833175626" opacity="0.7591715960061729"></circle><circle r="7.1210700856642175" cx="129.21633547614073" cy="500.1769764847249" opacity="0.5578262441828761"></circle><circle r="8.462257077298082" cx="782.9118244466194" cy="406.22521818328465" opacity="0.7805002060858834"></circle><circle r="5.648215090805037" cx="763.6494635351036" cy="190.51705342788782" opacity="0.205587570618096"></circle><circle r="8.12093515953999" cx="237.35145796828576" cy="535.7953712063007" opacity="0.719038641785727"></circle><circle r="5.649181198233967" cx="281.1798100021857" cy="78.56546670699205" opacity="0.5295806172365075"></circle><circle r="5.692312697144585" cx="20.13120008251053" cy="201.64743601722634" opacity="0.5555014516863771"></circle><circle r="8.654877254044795" cx="597.0722860271625" cy="237.07693281589738" opacity="0.30898887550240306"></circle><circle r="5.249973934616644" cx="534.6547136340811" cy="371.1577969406773" opacity="0.7775738847091566"></circle><circle r="4.125175073217825" cx="10.487521405380823" cy="590.9877386450175" opacity="0.7745880482923814"></circle><circle r="6.9007874823142" cx="117.51327568195708" cy="556.1579302871276" opacity="0.9806364383726658"></circle><circle r="5.729242800148638" cx="655.0809681360524" cy="779.0054947395577" opacity="0.6712113535154393"></circle><circle r="7.234619359944362" cx="130.19188400162452" cy="65.23176759623748" opacity="0.7534162956004609"></circle><circle r="7.704593350578898" cx="57.63939314235119" cy="246.01366296859007" opacity="0.6565571946429151"></circle><circle r="5.9437182255455525" cx="323.55766165901264" cy="48.179377914902624" opacity="0.7655085538170696"></circle><circle r="9.628543594056515" cx="738.5696798634538" cy="450.0672322344395" opacity="0.4315472243671551"></circle><circle r="9.531708447404746" cx="18.99731085421282" cy="731.9813951433533" opacity="0.773574100848119"></circle><circle r="6.984134503781313" cx="565.9410572454943" cy="92.57357452550977" opacity="0.5182741755881148"></circle><circle r="9.926465612262636" cx="771.4059080574189" cy="630.4512667868934" opacity="0.28785916877052975"></circle><circle r="5.74528586790664" cx="684.9931961994951" cy="648.8714065859369" opacity="0.24061629529338147"></circle><circle r="4.280986709671027" cx="644.1845194082478" cy="701.7325303218364" opacity="0.11199216129205954"></circle><circle r="9.373113242648605" cx="527.4985511705445" cy="490.90439364497786" opacity="0.8953422793209085"></circle><circle r="11.396451601848426" cx="402.24886936113717" cy="240.74766734941656" opacity="0.34324170394382825"></circle><circle r="8.164625347520602" cx="706.761186702626" cy="21.32973345175283" opacity="0.6032969360916882"></circle><circle r="4.926312706754078" cx="366.0194990719984" cy="104.06118413171576" opacity="0.8497878740122299"></circle><circle r="4.994447871828252" cx="380.2921293753539" cy="153.4061301391074" opacity="0.3980579163342636"></circle><circle r="5.342706108455085" cx="525.1596770212958" cy="311.3166258049223" opacity="0.97903880326108"></circle><circle r="5.450457881233005" cx="637.4631035350673" cy="291.20453997256396" opacity="0.4306599637469706"></circle><circle r="9.422866283932763" cx="541.619359945546" cy="598.5477009381262" opacity="0.6795123235033523"></circle><circle r="9.567150175838957" cx="369.1616605670222" cy="201.45939052113584" opacity="0.6752692302796972"></circle><circle r="9.333862640183483" cx="482.22603594737666" cy="483.94073636926447" opacity="0.1698201452898334"></circle><circle r="6.290395115318798" cx="732.0211385302262" cy="312.64061900148056" opacity="0.5618189011190784"></circle><circle r="6.070285439837919" cx="676.541815453045" cy="293.2874204751878" opacity="0.5512317354399897"></circle><circle r="12.153074234115834" cx="250.26578681282732" cy="168.55850141898773" opacity="0.9847508745921492"></circle><circle r="7.481327529928554" cx="531.660582342855" cy="649.0849279616903" opacity="0.30171740960993726"></circle><circle r="5.740910605214956" cx="256.3968870907221" cy="41.106312374507965" opacity="0.2216676656391235"></circle><circle r="12.505017371555" cx="345.5449665755095" cy="257.21509130441564" opacity="0.6960536599754807"></circle><circle r="8.974290246729986" cx="213.47058509770676" cy="677.130093695665" opacity="0.2432113391376824"></circle><circle r="10.465578909378616" cx="278.8493512106789" cy="270.29353595348505" opacity="0.8242627006568681"></circle><circle r="7.392818028329609" cx="492.86238773275835" cy="250.86662057458474" opacity="0.4815278240708256"></circle><circle r="10.471648183286892" cx="565.3769019036937" cy="533.0883297839838" opacity="0.489936473815485"></circle><circle r="9.56008621140154" cx="471.1289343674775" cy="177.85814214935277" opacity="0.10118126929077356"></circle><circle r="6.335372419511076" cx="50.29603849745297" cy="180.02336680870985" opacity="0.7192234706982596"></circle><circle r="5.167998314594371" cx="547.4863629365054" cy="454.2834363005898" opacity="0.6881192861651247"></circle><circle r="8.490322837883529" cx="77.738493340725" cy="733.126076024455" opacity="0.48722542890430376"></circle><circle r="7.659353609982219" cx="308.4574981389478" cy="652.7506193558961" opacity="0.9138854556630452"></circle><circle r="7.487464203336215" cx="476.96471764024466" cy="60.76419354225687" opacity="0.1820668487747723"></circle><circle r="5.048561416172508" cx="563.3621954394434" cy="420.3257558576082" opacity="0.4225570271945972"></circle><circle r="11.789403269420642" cx="208.11548545796066" cy="199.34111101704676" opacity="0.763140109848075"></circle><circle r="8.843729632514318" cx="341.30606212751667" cy="165.40218765449907" opacity="0.7238236538258528"></circle><circle r="7.071935952000825" cx="751.7784318075344" cy="156.65701727305583" opacity="0.8248984430961579"></circle><circle r="7.439686899096873" cx="233.2089293113118" cy="66.84685966852454" opacity="0.7778383804260603"></circle><circle r="5.607695998846678" cx="778.4116597162167" cy="458.6319778566791" opacity="0.6794505704240738"></circle><circle r="11.267151089368863" cx="347.89758813614594" cy="770.3262270631552" opacity="0.9332288667063513"></circle><circle r="4.804702361596254" cx="594.9739910721335" cy="386.4144219695177" opacity="0.23747925272274106"></circle><circle r="4.972708216589357" cx="642.1611960101906" cy="328.2104975964839" opacity="0.14425680361190346"></circle><circle r="5.3718023785632045" cx="13.22880352053294" cy="658.222066217204" opacity="0.3701291217502878"></circle><circle r="3.57510872153795" cx="150.9675068891293" cy="350.8528701042624" opacity="0.2329299636740043"></circle><circle r="3.9794818617678787" cx="549.4882078116848" cy="387.70811775491705" opacity="0.23668853016065083"></circle><circle r="9.900473025324803" cx="28.54301184864042" cy="776.8195823122488" opacity="0.178137967949431"></circle><circle r="5.573260570250331" cx="148.83887728459644" cy="594.342227453105" opacity="0.3917525650807947"></circle><circle r="11.374253442191135" cx="207.51969305019642" cy="736.2600686588871" opacity="0.7267395758837177"></circle><circle r="6.8585486693728726" cx="80.06138644114148" cy="273.2769062245739" opacity="0.7549663570721251"></circle><circle r="4.412293503602028" cx="66.04201503241451" cy="601.982899619434" opacity="0.21236659064448568"></circle><circle r="6.939066332554116" cx="663.8295151172726" cy="675.0465501487898" opacity="0.29077329232584503"></circle><circle r="9.157438223581371" cx="466.98468360233386" cy="278.50305342861003" opacity="0.6741068890545932"></circle><circle r="10.190859168241166" cx="251.30170499736838" cy="374.7410890500812" opacity="0.6597838072629947"></circle><circle r="4.913573436922716" cx="719.4731951196871" cy="717.4241273755356" opacity="0.5441777479590668"></circle><circle r="5.107875664432315" cx="786.1497550948736" cy="683.5789256205425" opacity="0.18575818273935976"></circle><circle r="9.545099793773367" cx="692.4873627082036" cy="765.4341376740781" opacity="0.916881440159627"></circle><circle r="8.760910364550458" cx="204.78680212592928" cy="366.7606650442499" opacity="0.5208815096744458"></circle><circle r="6.524807625356333" cx="475.7923515742518" cy="688.5568347504292" opacity="0.8357056431093062"></circle><circle r="5.824139548709364" cx="683.5506504120704" cy="96.36840616395631" opacity="0.5890187472736436"></circle><circle r="7.640050914364686" cx="327.2546654146384" cy="389.96605879151855" opacity="0.4431227179146109"></circle><circle r="5.0898568078535735" cx="609.6076010853466" cy="635.1762885956387" opacity="0.16543541255352603"></circle><circle r="3.8485202134686904" cx="634.9252661509724" cy="667.8366172446268" opacity="0.817976323101309"></circle><circle r="7.951084369157319" cx="268.6709293480531" cy="614.3913330844779" opacity="0.9162351096757552"></circle><circle r="5.377115763043938" cx="351.99567423175415" cy="16.78189557916727" opacity="0.5271194786704975"></circle><circle r="7.118889380081335" cx="777.9283031461603" cy="591.3007971790327" opacity="0.16750457427574944"></circle><circle r="5.491917809492635" cx="440.46717999044523" cy="103.03342808256684" opacity="0.9786965237288026"></circle><circle r="4.297221786875873" cx="699.708069927489" cy="602.2018382005044" opacity="0.1383315935940092"></circle><circle r="6.599825668597184" cx="56.65766124196656" cy="560.2228560900054" opacity="0.4924098926981625"></circle><circle r="5.060898183489392" cx="175.03050214941393" cy="706.5701968632897" opacity="0.9916101209521477"></circle><circle r="5.57486238597946" cx="265.40122836334467" cy="555.8712743203936" opacity="0.4997254153498836"></circle><circle r="6.647644176029616" cx="784.0701315972718" cy="362.94029423646987" opacity="0.3536751909543824"></circle><circle r="4.129610749641196" cx="12.437357050515057" cy="541.7953577274816" opacity="0.13812452093351396"></circle></g></svg>