<svg xmlns="http://www.w3.org/2000/svg" version="1.1" xmlns:xlink="http://www.w3.org/1999/xlink" xmlns:svgjs="http://svgjs.dev/svgjs" viewBox="0 0 2400 800"><defs><linearGradient x1="50%" y1="0%" x2="50%" y2="100%" id="sssurf-grad"><stop stop-color="hsla(55, 94%, 54%, 1.00)" stop-opacity="1" offset="0%"></stop><stop stop-color="hsla(37, 91%, 55%, 1.00)" stop-opacity="1" offset="100%"></stop></linearGradient></defs><g fill="url(#sssurf-grad)" transform="matrix(1,0,0,1,0,-92.78604125976562)"><path d="M 0 326.23528383150614 Q 450 468.7119945694102 600 338.10775282901625 Q 1050 599.1013849740305 1200 321.6078013777896 Q 1650 560.0391458894685 1800 305.5720775378417 Q 2250 467.24892423626534 2400 339.71449022055896 L 2400 800 L 0 800 L 0 306.39610815026515 Z" transform="matrix(1,0,0,1,0,35)" opacity="0.05"></path><path d="M 0 326.23528383150614 Q 450 468.7119945694102 600 338.10775282901625 Q 1050 599.1013849740305 1200 321.6078013777896 Q 1650 560.0391458894685 1800 305.5720775378417 Q 2250 467.24892423626534 2400 339.71449022055896 L 2400 800 L 0 800 L 0 306.39610815026515 Z" transform="matrix(1,0,0,1,0,70)" opacity="0.21"></path><path d="M 0 326.23528383150614 Q 450 468.7119945694102 600 338.10775282901625 Q 1050 599.1013849740305 1200 321.6078013777896 Q 1650 560.0391458894685 1800 305.5720775378417 Q 2250 467.24892423626534 2400 339.71449022055896 L 2400 800 L 0 800 L 0 306.39610815026515 Z" transform="matrix(1,0,0,1,0,105)" opacity="0.37"></path><path d="M 0 326.23528383150614 Q 450 468.7119945694102 600 338.10775282901625 Q 1050 599.1013849740305 1200 321.6078013777896 Q 1650 560.0391458894685 1800 305.5720775378417 Q 2250 467.24892423626534 2400 339.71449022055896 L 2400 800 L 0 800 L 0 306.39610815026515 Z" transform="matrix(1,0,0,1,0,140)" opacity="0.53"></path><path d="M 0 326.23528383150614 Q 450 468.7119945694102 600 338.10775282901625 Q 1050 599.1013849740305 1200 321.6078013777896 Q 1650 560.0391458894685 1800 305.5720775378417 Q 2250 467.24892423626534 2400 339.71449022055896 L 2400 800 L 0 800 L 0 306.39610815026515 Z" transform="matrix(1,0,0,1,0,175)" opacity="0.68"></path><path d="M 0 326.23528383150614 Q 450 468.7119945694102 600 338.10775282901625 Q 1050 599.1013849740305 1200 321.6078013777896 Q 1650 560.0391458894685 1800 305.5720775378417 Q 2250 467.24892423626534 2400 339.71449022055896 L 2400 800 L 0 800 L 0 306.39610815026515 Z" transform="matrix(1,0,0,1,0,210)" opacity="0.84"></path><path d="M 0 326.23528383150614 Q 450 468.7119945694102 600 338.10775282901625 Q 1050 599.1013849740305 1200 321.6078013777896 Q 1650 560.0391458894685 1800 305.5720775378417 Q 2250 467.24892423626534 2400 339.71449022055896 L 2400 800 L 0 800 L 0 306.39610815026515 Z" transform="matrix(1,0,0,1,0,245)" opacity="1"></path></g></svg>